<?xml version="1.0" encoding="UTF-8" standalone="no"?>
<!-- Created with Inkscape (http://www.inkscape.org/) -->

<svg
   width="100mm"
   height="33.262001mm"
   viewBox="0 0 100 33.262001"
   version="1.1"
   id="svg1"
   xml:space="preserve"
   inkscape:version="1.4.4 (dcaf3e7d9e, 2026-05-05)"
   sodipodi:docname="logo.svg"
   xmlns:inkscape="http://www.inkscape.org/namespaces/inkscape"
   xmlns:sodipodi="http://sodipodi.sourceforge.net/DTD/sodipodi-0.dtd"
   xmlns="http://www.w3.org/2000/svg"
   xmlns:svg="http://www.w3.org/2000/svg"><sodipodi:namedview
     id="namedview1"
     pagecolor="#ffffff"
     bordercolor="#000000"
     borderopacity="0.25"
     inkscape:showpageshadow="2"
     inkscape:pageopacity="0.0"
     inkscape:pagecheckerboard="0"
     inkscape:deskcolor="#d1d1d1"
     inkscape:document-units="mm"
     inkscape:zoom="0.30929474"
     inkscape:cx="682.19719"
     inkscape:cy="412.22816"
     inkscape:window-width="1299"
     inkscape:window-height="699"
     inkscape:window-x="0"
     inkscape:window-y="0"
     inkscape:window-maximized="1"
     inkscape:current-layer="layer1" /><defs
     id="defs1" /><g
     inkscape:label="Layer 1"
     inkscape:groupmode="layer"
     id="layer1"><path
       style="fill:#ff6600;fill-opacity:1;stroke-width:0.416248"
       d="m 0.45383923,32.948859 c 0.15103136,-0.166578 0.62203657,-0.724122 1.04667187,-1.238991 0.4246393,-0.514865 1.4893763,-1.803415 2.3660902,-2.863436 3.5795563,-4.327999 4.7915867,-5.79895 5.0354332,-6.111106 0.2081613,-0.266478 0.2738828,-0.297518 0.3489113,-0.16478 0.050845,0.08995 0.4903443,0.682015 0.9766632,1.315702 0.50796,0.661884 0.847776,1.200826 0.798571,1.266522 -0.07745,0.103417 -2.2346261,2.807084 -3.9136451,4.905114 -1.6723547,2.089702 -2.3142631,2.785502 -2.7540164,2.985234 -0.3791599,0.172206 -0.7375329,0.20414 -2.3139632,0.206184 l -1.86531895,0.0025 z M 7.3933441,32.788861 c 0.2088731,-0.260296 0.9175392,-1.152552 1.5748197,-1.982788 l 1.1950512,-1.509527 4.252193,-0.03234 4.252188,-0.03234 0.656102,-0.322138 c 1.216205,-0.597145 2.109373,-1.836119 2.251863,-3.123719 0.214068,-1.934396 -0.635465,-3.533642 -2.282948,-4.297653 -0.566501,-0.26271 -0.77696,-0.293842 -2.247938,-0.332495 l -1.622922,-0.04265 -1.151953,-1.466087 -1.151954,-1.466083 1.288092,-1.473535 c 0.70845,-0.810442 2.25787,-2.586127 3.443161,-3.945962 2.583071,-2.96346 9.299064,-10.623489 9.977976,-11.3805418 l 0.482527,-0.53806154 -0.05915,0.59312774 c -0.05031,0.5044437 -0.545039,7.638213 -0.632959,9.1269196 l -0.02918,0.494138 -1.169428,-1.1273981 C 25.775703,9.3096583 25.205768,8.8032568 25.152364,8.8043904 c -0.0534,0.00113 -0.342377,0.2923994 -0.642163,0.647255 l -0.545068,0.6451926 -0.02797,1.01751 c -0.0154,0.559629 -0.08341,1.296724 -0.151169,1.637989 -0.160397,0.807817 -1.095256,2.71049 -1.587561,3.231078 -0.497457,0.526042 -1.432954,1.265073 -1.714487,1.354429 -0.337718,0.107188 -0.263647,0.225215 0.247135,0.393787 0.760855,0.251106 1.959749,1.107869 2.757621,1.970676 2.482127,2.684128 2.764626,6.968972 0.669343,10.152328 -0.906979,1.377967 -2.312948,2.45033 -3.993045,3.045581 l -0.836611,0.296406 -6.1574,0.03272 -6.1574044,0.03272 z M 1.1658066e-4,26.219255 C 1.8734279e-4,26.17649 3.1864105,22.199165 5.4037709,19.473949 L 6.8018477,17.755657 6.033404,16.77571 C 3.5433806,13.600346 1.5404297e-4,9.0368057 3.1267242e-8,9.004913 -4.1621809e-4,8.9003278 4.1552441,9.0923028 4.3504058,9.2058804 4.691779,9.4045497 5.05031,9.8241861 6.4521327,11.665801 c 0.7146686,0.938876 1.5262937,2.004404 1.8036144,2.367843 0.2773211,0.363434 0.5839876,0.774758 0.681477,0.914047 0.1767512,0.252546 0.1849886,0.245578 2.9285699,-2.477974 C 14.926398,9.431458 15.157128,9.1169047 15.060762,8.1140228 15.014484,7.6323819 14.943002,7.490936 14.570094,7.1430887 13.995534,6.6071455 13.414485,6.4895848 11.340123,6.4895848 H 9.6953029 L 9.666039,9.5120772 9.636775,12.534569 7.1863324,9.3769614 4.7358898,6.2193535 V 4.4271551 2.6349567 l 4.5980192,8.315e-4 c 2.630932,4.591e-4 4.897772,0.04947 5.298673,0.1145219 0.940199,0.1525598 1.70431,0.5566836 2.109077,1.1154523 0.675525,0.9325297 0.699222,1.9443089 0.07507,3.2049757 -0.203233,0.4104937 -0.335355,0.7326307 -0.293601,0.7158597 0.04175,-0.016771 0.85847,-0.8649203 1.814932,-1.8847761 l 1.739025,-1.8542822 -1.2424,-1.169507 C 17.674187,1.7856192 17.609581,1.7030136 17.854622,1.6249205 17.99891,1.578938 20.047449,1.2141996 22.406941,0.81439104 24.76643,0.41458253 26.84312,0.05822608 27.021811,0.02248787 c 0.3513,-0.07025972 0.559765,-0.32447351 -4.716292,5.75123763 -1.104614,1.2720272 -3.012927,3.4774252 -4.2407,4.9008845 -3.938125,4.56579 -5.408383,6.176453 -6.066542,6.645889 -0.352895,0.251701 -0.632118,0.493025 -0.620504,0.536269 0.0196,0.07299 1.264227,1.654668 5.059671,6.429869 0.832874,1.047875 1.514318,1.935906 1.514318,1.973406 0,0.0375 -0.906097,0.05075 -2.013549,0.02947 -1.830446,-0.03522 -2.048439,-0.06029 -2.397209,-0.275848 C 13.310174,25.871004 12.346443,24.723093 11.12173,23.132042 10.00214,21.67756 9.0554507,20.485026 9.0179717,20.481967 8.9805097,20.479067 8.2879607,21.3313 7.4790162,22.376182 5.2853903,25.2096 4.6611017,25.942063 4.3246776,26.077081 4.0534715,26.185926 -2.0781125e-5,26.319209 1.4155553e-4,26.219276 Z M 38.852187,23.176911 C 38.155849,22.985237 37.48967,22.581655 36.922016,22.007583 l -0.468063,-0.473349 v 0.792661 0.792656 h -1.596918 -1.596918 l 2.95e-4,-8.397583 3e-4,-8.3975815 1.667244,0.00616 1.667244,0.00616 0.0067,3.1050728 c 0.0038,1.7077897 0.01623,3.1050717 0.02784,3.1050717 0.01161,0 0.183128,-0.151315 0.38111,-0.336254 2.078463,-1.941576 5.886869,-1.45192 7.558955,0.971872 0.8416,1.219956 1.135221,2.261591 1.135221,4.027286 0,1.316604 -0.179858,2.125436 -0.717569,3.227023 -0.670483,1.373577 -1.860383,2.357649 -3.306109,2.734212 -0.773974,0.201591 -2.108182,0.204384 -2.829197,0.0059 z m 1.731722,-3.019899 c 1.039127,-0.482136 1.638642,-1.549371 1.645667,-2.929532 0.01048,-2.066242 -1.07298,-3.359037 -2.8152,-3.359037 -0.927077,0 -1.68795,0.360517 -2.151836,1.019579 -0.531158,0.75464 -0.643863,1.148373 -0.638146,2.229323 0.008,1.521086 0.498858,2.418696 1.646738,3.01162 0.582083,0.300664 1.696102,0.314171 2.312777,0.02805 z m 16.043328,3.019366 c -1.078386,-0.336537 -1.693604,-1.026422 -2.064034,-2.314538 -0.157951,-0.549243 -0.19277,-1.190644 -0.206271,-3.79956 l -0.01623,-3.138767 -0.90371,-0.03197 -0.903717,-0.03201 V 12.5424 11.225267 h 0.881059 0.881058 l 0.01966,-1.4041849 c 0.01078,-0.7723021 0.01926,-1.4909152 0.01876,-1.5969173 -6.65e-4,-0.1754963 0.15552,-0.1927317 1.747658,-0.1927317 h 1.748503 l -0.01686,1.5693843 -0.0169,1.5693836 1.388358,0.0308 1.388355,0.0308 v 1.315005 1.315007 l -1.404185,0.0308 -1.404187,0.03084 0.0072,2.753305 c 0.0062,2.37014 0.03326,2.802859 0.194593,3.109371 0.34226,0.650312 1.191474,0.87027 2.021302,0.523548 0.219357,-0.09166 0.411365,-0.153603 0.426683,-0.137665 0.0153,0.01594 0.07065,0.64043 0.122976,1.387766 0.08187,1.169302 0.07179,1.370966 -0.07228,1.446091 -0.644409,0.336026 -2.975454,0.439555 -3.837769,0.170449 z m 35.30412,0.04945 c -1.08105,-0.269928 -2.207776,-1.180129 -2.624553,-2.120183 -0.349055,-0.787312 -0.362114,-2.214968 -0.02701,-2.951892 0.304534,-0.669681 0.890648,-1.238829 1.692682,-1.643692 0.995108,-0.502328 1.844115,-0.665831 3.824016,-0.736418 l 1.789645,-0.06381 -0.0027,-0.28744 c -0.0044,-0.52026 -0.396261,-1.192738 -0.882625,-1.514601 -0.402954,-0.266661 -0.59266,-0.311333 -1.488497,-0.350514 -1.205737,-0.05274 -2.144688,0.181184 -3.141618,0.782671 l -0.614284,0.370614 -0.448306,-1.196242 -0.448312,-1.196246 0.751908,-0.378657 c 1.145795,-0.577011 2.180185,-0.82939 3.694883,-0.901509 3.326684,-0.158383 5.396718,1.146171 5.882397,3.70714 C 99.950443,15.068935 100,17.069302 100,19.224891 v 3.89466 h -1.596918 -1.596921 v -0.605728 c 0,-0.333148 -0.02748,-0.605723 -0.06104,-0.605723 -0.03359,0 -0.219423,0.153508 -0.412998,0.341127 -0.193576,0.187624 -0.674093,0.496068 -1.067819,0.685436 -0.636233,0.30601 -0.838353,0.34711 -1.817179,0.369513 -0.605729,0.01386 -1.28794,-0.02139 -1.516028,-0.07834 z m 3.417843,-2.47938 c 0.914656,-0.382166 1.236952,-0.927916 1.236952,-2.094543 v -0.844217 l -1.459249,0.04622 c -1.604216,0.05081 -1.929892,0.15166 -2.437327,0.754707 -0.548349,0.651673 -0.257133,1.687352 0.594805,2.11538 0.480993,0.241661 1.513317,0.252883 2.064819,0.02243 z M 47.577307,17.172411 V 11.22527 h 1.707052 1.707048 v 5.947141 5.94714 h -1.707048 -1.707052 z m 14.671966,0 -0.01387,-5.947141 h 1.642098 1.642101 l 0.03217,0.835001 0.03216,0.835002 0.385461,-0.579038 c 0.268664,-0.403582 0.569007,-0.681627 0.991192,-0.917598 0.546815,-0.305639 0.698909,-0.338564 1.563876,-0.338564 0.526981,0 1.009098,0.05095 1.071364,0.113211 0.119753,0.119755 0.0348,2.914006 -0.09497,3.12399 -0.04566,0.07388 -0.238546,0.05375 -0.561517,-0.0586 -1.098918,-0.382286 -2.309348,0.09415 -2.803083,1.103302 -0.413823,0.845824 -0.492538,1.622859 -0.495039,4.886604 l -0.002,2.89097 h -1.687923 -1.687926 z m 8.856747,0.247784 c 0.0085,-3.13463 0.02089,-5.810837 0.02751,-5.947125 0.01194,-0.245428 0.02784,-0.2478 1.664037,-0.2478 h 1.651984 v 5.947141 5.94714 l -1.679518,-1.2e-5 -1.679521,-1.6e-5 z m 4.665143,5.63739 c 0,-0.03692 0.610472,-0.942573 1.35661,-2.012513 0.746138,-1.06994 1.690481,-2.428972 2.098546,-3.020069 l 0.741934,-1.074723 -1.527397,-2.174179 c -0.840073,-1.195797 -1.737487,-2.485079 -1.99426,-2.865067 l -0.46686,-0.690893 1.954589,0.0301 1.954588,0.03009 1.740683,2.787258 c 0.957378,1.532991 1.740686,2.827497 1.740686,2.876676 0,0.10865 -0.841942,1.476573 -2.541813,4.129733 l -1.27529,1.99048 -1.891011,0.03014 c -1.040055,0.01657 -1.891005,-9.6e-5 -1.891005,-0.03705 z m 8.180334,-1.121955 c -1.267048,-1.968282 -1.212412,-1.843382 -0.988106,-2.25886 0.10594,-0.196228 0.503421,-0.841187 0.883287,-1.433241 l 0.690677,-1.076463 1.116664,1.627121 c 0.61417,0.894921 1.538746,2.234231 2.05462,2.976247 l 0.937947,1.349117 h -1.966479 -1.96648 z m -0.340194,-6.633858 c -0.726191,-1.183513 -0.792026,-1.337196 -0.67067,-1.565566 0.07401,-0.139273 0.454879,-0.761209 0.846373,-1.382081 l 0.711805,-1.128855 h 1.862522 c 1.740939,0 1.855574,0.01257 1.756127,0.192731 -0.291955,0.528868 -3.495573,5.135928 -3.590786,5.163833 -0.06057,0.01773 -0.47249,-0.558276 -0.915371,-1.280062 z M 48.262675,9.4500947 c -1.343681,-0.665109 -1.344792,-2.7275129 -0.0017,-3.4126364 0.668066,-0.3408223 1.774438,-0.2659414 2.329841,0.1576871 0.663572,0.5061298 0.941014,1.2770957 0.734959,2.0423318 -0.14945,0.5550094 -0.598288,1.0990665 -1.068943,1.2957194 -0.542132,0.2265186 -1.444485,0.1889126 -1.99402,-0.083102 z m 23.598793,0.077229 C 70.91318,9.1040469 70.455794,7.9601874 70.853874,7.0074554 71.478472,5.5125761 73.872652,5.4149593 74.637,6.8532076 c 0.116221,0.2186904 0.185426,0.5931745 0.182536,0.9877231 -0.0038,0.5359066 -0.05607,0.6998539 -0.3328,1.0462566 -0.180487,0.2259235 -0.49809,0.4974221 -0.705788,0.6033298 -0.451173,0.2300617 -1.443876,0.2490965 -1.91948,0.036805 z"
       id="path1" /></g></svg>
